# WaveFront *.obj file (generated by Autodesk ATF)

mtllib cube.mtl

g Solid1

v -9.500000 -8.000000 1.500000
v -9.500000 -8.000000 17.500000
v -9.500000 8.000000 1.500000
v -9.500000 8.000000 17.500000
v -9.308213 -8.618189 1.104499
v -9.308213 -8.395501 18.118190
v -9.308213 8.395501 0.881811
v -9.308213 8.395501 18.118190
v -9.299038 -8.750000 1.500000
v -9.299038 -8.750000 17.500000
v -9.299038 -8.000000 0.750000
v -9.299038 -8.000000 18.250000
v -9.299038 8.000000 0.750000
v -9.299038 8.000000 18.250000
v -9.299038 8.750000 1.500000
v -9.299038 8.750000 17.500000
v -8.929746 -9.152434 17.739722
v -8.929746 -8.239722 0.347565
v -8.929746 9.152434 1.260278
v -8.929746 9.152434 17.739722
v -8.750000 -9.299038 1.500000
v -8.750000 -9.299038 17.500000
v -8.750000 -8.000000 0.200962
v -8.750000 -8.000000 18.799038
v -8.750000 8.000000 0.200962
v -8.750000 8.000000 18.799038
v -8.750000 9.299038 1.500000
v -8.750000 9.299038 17.500000
v -8.618189 -9.308213 1.104499
v -8.618189 -8.395501 18.808213
v -8.618189 8.395501 0.191787
v -8.618189 8.395501 18.808213
v -8.239722 -9.152434 18.429747
v -8.239722 -8.929746 0.347565
v -8.239722 9.152434 0.570254
v -8.239722 9.152434 18.429747
v -8.000000 -9.500000 1.500000
v -8.000000 -9.500000 17.500000
v -8.000000 -9.299038 0.750000
v -8.000000 -9.299038 18.250000
v -8.000000 -8.750000 0.200962
v -8.000000 -8.750000 18.799038
v -8.000000 -8.000000 0.000000
v -8.000000 -8.000000 19.000000
v -8.000000 8.000000 0.000000
v -8.000000 8.000000 19.000000
v -8.000000 8.750000 0.200962
v -8.000000 8.750000 18.799038
v -8.000000 9.299038 0.750000
v -8.000000 9.299038 18.250000
v -8.000000 9.500000 1.500000
v -8.000000 9.500000 17.500000
v 8.000000 -9.500000 1.500000
v 8.000000 -9.500000 17.500000
v 8.000000 -9.299038 0.750000
v 8.000000 -9.299038 18.250000
v 8.000000 -8.750000 0.200962
v 8.000000 -8.750000 18.799038
v 8.000000 -8.000000 0.000000
v 8.000000 -8.000000 19.000000
v 8.000000 8.000000 0.000000
v 8.000000 8.000000 19.000000
v 8.000000 8.750000 0.200962
v 8.000000 8.750000 18.799038
v 8.000000 9.299038 0.750000
v 8.000000 9.299038 18.250000
v 8.000000 9.500000 1.500000
v 8.000000 9.500000 17.500000
v 8.239722 -9.152434 0.570254
v 8.239722 -9.152434 18.429747
v 8.239722 8.929746 0.347565
v 8.239722 9.152434 18.429747
v 8.618189 -8.395501 0.191787
v 8.618189 -8.395501 18.808213
v 8.618189 8.395501 18.808213
v 8.618189 9.308213 1.104499
v 8.750000 -9.299038 1.500000
v 8.750000 -9.299038 17.500000
v 8.750000 -8.000000 0.200962
v 8.750000 -8.000000 18.799038
v 8.750000 8.000000 0.200962
v 8.750000 8.000000 18.799038
v 8.750000 9.299038 1.500000
v 8.750000 9.299038 17.500000
v 8.929746 -9.152434 1.260278
v 8.929746 -9.152434 17.739722
v 8.929746 8.239722 0.347565
v 8.929746 9.152434 17.739722
v 9.299038 -8.750000 1.500000
v 9.299038 -8.750000 17.500000
v 9.299038 -8.000000 0.750000
v 9.299038 -8.000000 18.250000
v 9.299038 8.000000 0.750000
v 9.299038 8.000000 18.250000
v 9.299038 8.750000 1.500000
v 9.299038 8.750000 17.500000
v 9.308213 -8.395501 0.881811
v 9.308213 -8.395501 18.118190
v 9.308213 8.395501 18.118190
v 9.308213 8.618189 1.104499
v 9.500000 -8.000000 1.500000
v 9.500000 -8.000000 17.500000
v 9.500000 8.000000 1.500000
v 9.500000 8.000000 17.500000
vt 0.063080 -0.130720 0.000000
vt 0.088738 -0.046780 0.000000
vt 0.088738 0.046780 0.000000
vt 0.063080 0.130720 0.000000
vt -0.008208 0.097400 0.000000
vt -0.079057 0.062172 0.000000
vt -0.143297 0.000000 0.000000
vt -0.079057 -0.062172 0.000000
vt -0.008208 -0.097400 0.000000
vt 0.047124 -0.051496 0.000000
vt -0.047124 -0.051496 0.000000
vt 0.047124 0.051496 0.000000
vt -0.047124 0.051496 0.000000
vt 0.063080 0.130720 0.000000
vt -0.008208 0.097400 0.000000
vt -0.079057 0.062172 0.000000
vt -0.143297 0.000000 0.000000
vt -0.079057 -0.062172 0.000000
vt -0.008208 -0.097400 0.000000
vt 0.063080 -0.130720 0.000000
vt 0.088738 -0.046780 0.000000
vt 0.088738 0.046780 0.000000
vt -0.047124 0.051496 0.000000
vt 0.047124 0.051496 0.000000
vt -0.047124 -0.051496 0.000000
vt 0.047124 -0.051496 0.000000
vt -0.063080 -0.130720 0.000000
vt 0.008208 -0.097400 0.000000
vt 0.079057 -0.062172 0.000000
vt 0.143297 0.000000 0.000000
vt 0.079057 0.062172 0.000000
vt 0.008208 0.097400 0.000000
vt -0.063080 0.130720 0.000000
vt -0.088738 0.046780 0.000000
vt -0.088738 -0.046780 0.000000
vt -0.047124 0.051496 0.000000
vt 0.047124 -0.051496 0.000000
vt -0.047124 -0.051496 0.000000
vt 0.047124 0.051496 0.000000
vt 0.063080 0.130720 0.000000
vt -0.008208 0.097400 0.000000
vt -0.079057 0.062172 0.000000
vt -0.143297 0.000000 0.000000
vt -0.079057 -0.062172 0.000000
vt -0.008208 -0.097400 0.000000
vt 0.063080 -0.130720 0.000000
vt 0.088738 -0.046780 0.000000
vt 0.088738 0.046780 0.000000
vt -0.047124 0.051496 0.000000
vt 0.047124 0.051496 0.000000
vt -0.047124 -0.051496 0.000000
vt 0.047124 -0.051496 0.000000
vt -0.063080 -0.130720 0.000000
vt 0.008208 -0.097400 0.000000
vt 0.079057 -0.062172 0.000000
vt 0.143297 0.000000 0.000000
vt 0.079057 0.062172 0.000000
vt 0.008208 0.097400 0.000000
vt -0.063080 0.130720 0.000000
vt -0.088738 0.046780 0.000000
vt -0.088738 -0.046780 0.000000
vt -0.047124 0.051496 0.000000
vt 0.047124 -0.051496 0.000000
vt -0.047124 -0.051496 0.000000
vt 0.047124 0.051496 0.000000
vt 0.063080 0.130720 0.000000
vt -0.008208 0.097400 0.000000
vt -0.079057 0.062172 0.000000
vt -0.143297 0.000000 0.000000
vt -0.079057 -0.062172 0.000000
vt -0.008208 -0.097400 0.000000
vt 0.063080 -0.130720 0.000000
vt 0.088738 -0.046780 0.000000
vt 0.088738 0.046780 0.000000
vt -0.047124 0.051496 0.000000
vt 0.047124 0.051496 0.000000
vt -0.047124 -0.051496 0.000000
vt 0.047124 -0.051496 0.000000
vt -1.275000 0.117810 0.000000
vt -1.275000 0.039270 0.000000
vt -1.275000 -0.039270 0.000000
vt -1.275000 -0.117810 0.000000
vt 0.325000 -0.117810 0.000000
vt 0.325000 -0.039270 0.000000
vt 0.325000 0.039270 0.000000
vt 0.325000 0.117810 0.000000
vt -0.063080 0.130720 0.000000
vt -0.088738 0.046780 0.000000
vt -0.088738 -0.046780 0.000000
vt -0.063080 -0.130720 0.000000
vt 0.008208 -0.097400 0.000000
vt 0.079057 -0.062172 0.000000
vt 0.143297 0.000000 0.000000
vt 0.079057 0.062172 0.000000
vt 0.008208 0.097400 0.000000
vt -0.047124 0.051496 0.000000
vt 0.047124 0.051496 0.000000
vt -0.047124 -0.051496 0.000000
vt 0.047124 -0.051496 0.000000
vt 0.063080 -0.130720 0.000000
vt 0.088738 -0.046780 0.000000
vt 0.088738 0.046780 0.000000
vt 0.063080 0.130720 0.000000
vt -0.008208 0.097400 0.000000
vt -0.079057 0.062172 0.000000
vt -0.143297 0.000000 0.000000
vt -0.079057 -0.062172 0.000000
vt -0.008208 -0.097400 0.000000
vt 0.047124 -0.051496 0.000000
vt -0.047124 -0.051496 0.000000
vt 0.047124 0.051496 0.000000
vt -0.047124 0.051496 0.000000
vt -1.275000 0.117810 0.000000
vt -1.275000 0.039270 0.000000
vt -1.275000 -0.039270 0.000000
vt -1.275000 -0.117810 0.000000
vt 0.325000 -0.117810 0.000000
vt 0.325000 -0.039270 0.000000
vt 0.325000 0.039270 0.000000
vt 0.325000 0.117810 0.000000
vt -1.275000 0.117810 0.000000
vt -1.275000 0.039270 0.000000
vt -1.275000 -0.039270 0.000000
vt -1.275000 -0.117810 0.000000
vt 0.325000 -0.117810 0.000000
vt 0.325000 -0.039270 0.000000
vt 0.325000 0.039270 0.000000
vt 0.325000 0.117810 0.000000
vt -1.750000 0.117810 0.000000
vt -1.750000 0.039270 0.000000
vt -1.750000 -0.039270 0.000000
vt -1.750000 -0.117810 0.000000
vt -0.150000 -0.117810 0.000000
vt -0.150000 -0.039270 0.000000
vt -0.150000 0.039270 0.000000
vt -0.150000 0.117810 0.000000
vt -1.275000 0.117810 0.000000
vt -1.275000 0.039270 0.000000
vt -1.275000 -0.039270 0.000000
vt -1.275000 -0.117810 0.000000
vt 0.325000 -0.117810 0.000000
vt 0.325000 -0.039270 0.000000
vt 0.325000 0.039270 0.000000
vt 0.325000 0.117810 0.000000
vt -1.275000 0.117810 0.000000
vt -1.275000 0.039270 0.000000
vt -1.275000 -0.039270 0.000000
vt -1.275000 -0.117810 0.000000
vt 0.325000 -0.117810 0.000000
vt 0.325000 -0.039270 0.000000
vt 0.325000 0.039270 0.000000
vt 0.325000 0.117810 0.000000
vt -1.750000 0.117810 0.000000
vt -1.750000 0.039270 0.000000
vt -1.750000 -0.039270 0.000000
vt -1.750000 -0.117810 0.000000
vt -0.150000 -0.117810 0.000000
vt -0.150000 -0.039270 0.000000
vt -0.150000 0.039270 0.000000
vt -0.150000 0.117810 0.000000
vt -1.275000 0.117810 0.000000
vt -1.275000 0.039270 0.000000
vt -1.275000 -0.039270 0.000000
vt -1.275000 -0.117810 0.000000
vt 0.325000 -0.117810 0.000000
vt 0.325000 -0.039270 0.000000
vt 0.325000 0.039270 0.000000
vt 0.325000 0.117810 0.000000
vt -1.750000 0.117810 0.000000
vt -1.750000 0.039270 0.000000
vt -1.750000 -0.039270 0.000000
vt -1.750000 -0.117810 0.000000
vt -0.150000 -0.117810 0.000000
vt -0.150000 -0.039270 0.000000
vt -0.150000 0.039270 0.000000
vt -0.150000 0.117810 0.000000
vt -1.275000 0.117810 0.000000
vt -1.275000 0.039270 0.000000
vt -1.275000 -0.039270 0.000000
vt -1.275000 -0.117810 0.000000
vt 0.325000 -0.117810 0.000000
vt 0.325000 -0.039270 0.000000
vt 0.325000 0.039270 0.000000
vt 0.325000 0.117810 0.000000
vt -1.275000 0.117810 0.000000
vt -1.275000 0.039270 0.000000
vt -1.275000 -0.039270 0.000000
vt -1.275000 -0.117810 0.000000
vt 0.325000 -0.117810 0.000000
vt 0.325000 -0.039270 0.000000
vt 0.325000 0.039270 0.000000
vt 0.325000 0.117810 0.000000
vt -1.750000 0.117810 0.000000
vt -1.750000 0.039270 0.000000
vt -1.750000 -0.039270 0.000000
vt -1.750000 -0.117810 0.000000
vt -0.150000 -0.117810 0.000000
vt -0.150000 -0.039270 0.000000
vt -0.150000 0.039270 0.000000
vt -0.150000 0.117810 0.000000
vt 0.150000 0.150000 0.000000
vt 1.750000 0.150000 0.000000
vt 1.750000 1.750000 0.000000
vt 0.150000 1.750000 0.000000
vt -0.800000 -0.800000 0.000000
vt 0.800000 -0.800000 0.000000
vt 0.800000 0.800000 0.000000
vt -0.800000 0.800000 0.000000
vt 0.150000 0.150000 0.000000
vt 1.750000 0.150000 0.000000
vt 1.750000 1.750000 0.000000
vt 0.150000 1.750000 0.000000
vt 0.150000 0.150000 0.000000
vt 1.750000 0.150000 0.000000
vt 1.750000 1.750000 0.000000
vt 0.150000 1.750000 0.000000
vt 0.800000 0.800000 0.000000
vt -0.800000 0.800000 0.000000
vt -0.800000 -0.800000 0.000000
vt 0.800000 -0.800000 0.000000
vt 0.150000 0.150000 0.000000
vt 1.750000 0.150000 0.000000
vt 1.750000 1.750000 0.000000
vt 0.150000 1.750000 0.000000
vn 0.000000 0.000000 0.100000
vn -0.050000 0.000000 0.086603
vn -0.086603 0.000000 0.050000
vn -0.100000 0.000000 0.000000
vn -0.086603 -0.050000 0.000000
vn -0.050000 -0.086603 0.000000
vn 0.000000 -0.100000 0.000000
vn 0.000000 -0.086603 0.050000
vn 0.000000 -0.050000 0.086603
vn -0.041213 -0.026367 0.087214
vn -0.015981 -0.076829 0.061983
vn -0.087214 -0.026367 0.041213
vn -0.061983 -0.076829 0.015981
vn -0.100000 0.000000 0.000000
vn -0.086603 0.000000 -0.050000
vn -0.050000 0.000000 -0.086603
vn 0.000000 0.000000 -0.100000
vn 0.000000 -0.050000 -0.086603
vn 0.000000 -0.086603 -0.050000
vn 0.000000 -0.100000 0.000000
vn -0.050000 -0.086603 0.000000
vn -0.086603 -0.050000 0.000000
vn -0.061983 -0.015981 -0.076829
vn -0.087214 -0.041213 -0.026367
vn -0.015981 -0.061983 -0.076829
vn -0.041213 -0.087214 -0.026367
vn 0.000000 0.000000 0.100000
vn 0.000000 0.050000 0.086603
vn 0.000000 0.086603 0.050000
vn 0.000000 0.100000 0.000000
vn -0.050000 0.086603 0.000000
vn -0.086603 0.050000 0.000000
vn -0.100000 0.000000 0.000000
vn -0.086603 0.000000 0.050000
vn -0.050000 0.000000 0.086603
vn -0.087214 0.026367 0.041213
vn -0.015981 0.076829 0.061983
vn -0.041213 0.026367 0.087214
vn -0.061983 0.076829 0.015981
vn 0.000000 0.000000 0.100000
vn 0.000000 -0.050000 0.086603
vn 0.000000 -0.086603 0.050000
vn 0.000000 -0.100000 0.000000
vn 0.050000 -0.086603 0.000000
vn 0.086603 -0.050000 0.000000
vn 0.100000 0.000000 0.000000
vn 0.086603 0.000000 0.050000
vn 0.050000 0.000000 0.086603
vn 0.015981 -0.076829 0.061983
vn 0.041213 -0.026367 0.087214
vn 0.061983 -0.076829 0.015981
vn 0.087214 -0.026367 0.041213
vn -0.100000 0.000000 0.000000
vn -0.086603 0.050000 0.000000
vn -0.050000 0.086603 0.000000
vn 0.000000 0.100000 0.000000
vn 0.000000 0.086603 -0.050000
vn 0.000000 0.050000 -0.086603
vn 0.000000 0.000000 -0.100000
vn -0.050000 0.000000 -0.086603
vn -0.086603 0.000000 -0.050000
vn -0.041213 0.026367 -0.087214
vn -0.061983 0.076829 -0.015981
vn -0.087214 0.026367 -0.041213
vn -0.015981 0.076829 -0.061983
vn 0.100000 0.000000 0.000000
vn 0.086603 -0.050000 0.000000
vn 0.050000 -0.086603 0.000000
vn 0.000000 -0.100000 0.000000
vn 0.000000 -0.086603 -0.050000
vn 0.000000 -0.050000 -0.086603
vn 0.000000 0.000000 -0.100000
vn 0.050000 0.000000 -0.086603
vn 0.086603 0.000000 -0.050000
vn 0.061983 -0.076829 -0.015981
vn 0.087214 -0.026367 -0.041213
vn 0.015981 -0.076829 -0.061983
vn 0.041213 -0.026367 -0.087214
vn 0.000000 0.000000 -0.100000
vn 0.000000 -0.050000 -0.086603
vn 0.000000 -0.086603 -0.050000
vn 0.000000 -0.100000 0.000000
vn 0.000000 -0.100000 0.000000
vn 0.000000 -0.086603 -0.050000
vn 0.000000 -0.050000 -0.086603
vn 0.000000 0.000000 -0.100000
vn 0.000000 0.000000 0.100000
vn 0.050000 0.000000 0.086603
vn 0.086603 0.000000 0.050000
vn 0.100000 0.000000 0.000000
vn 0.086603 0.050000 0.000000
vn 0.050000 0.086603 0.000000
vn 0.000000 0.100000 0.000000
vn 0.000000 0.086603 0.050000
vn 0.000000 0.050000 0.086603
vn 0.041213 0.026367 0.087214
vn 0.015981 0.076829 0.061983
vn 0.087214 0.026367 0.041213
vn 0.061983 0.076829 0.015981
vn 0.000000 0.100000 0.000000
vn 0.050000 0.086603 0.000000
vn 0.086603 0.050000 0.000000
vn 0.100000 0.000000 0.000000
vn 0.086603 0.000000 -0.050000
vn 0.050000 0.000000 -0.086603
vn 0.000000 0.000000 -0.100000
vn 0.000000 0.050000 -0.086603
vn 0.000000 0.086603 -0.050000
vn 0.041213 0.087214 -0.026367
vn 0.015981 0.061983 -0.076829
vn 0.087214 0.041213 -0.026367
vn 0.061983 0.015981 -0.076829
vn 0.000000 0.000000 -0.100000
vn 0.050000 0.000000 -0.086603
vn 0.086603 0.000000 -0.050000
vn 0.100000 0.000000 0.000000
vn 0.100000 0.000000 0.000000
vn 0.086603 0.000000 -0.050000
vn 0.050000 0.000000 -0.086603
vn 0.000000 0.000000 -0.100000
vn 0.000000 0.000000 -0.100000
vn 0.000000 0.050000 -0.086603
vn 0.000000 0.086603 -0.050000
vn 0.000000 0.100000 0.000000
vn 0.000000 0.100000 0.000000
vn 0.000000 0.086603 -0.050000
vn 0.000000 0.050000 -0.086603
vn 0.000000 0.000000 -0.100000
vn 0.000000 0.100000 0.000000
vn 0.050000 0.086603 0.000000
vn 0.086603 0.050000 0.000000
vn 0.100000 0.000000 0.000000
vn 0.100000 0.000000 0.000000
vn 0.086603 0.050000 0.000000
vn 0.050000 0.086603 0.000000
vn 0.000000 0.100000 0.000000
vn 0.000000 0.100000 0.000000
vn 0.000000 0.086603 0.050000
vn 0.000000 0.050000 0.086603
vn 0.000000 0.000000 0.100000
vn 0.000000 0.000000 0.100000
vn 0.000000 0.050000 0.086603
vn 0.000000 0.086603 0.050000
vn 0.000000 0.100000 0.000000
vn 0.100000 0.000000 0.000000
vn 0.086603 0.000000 0.050000
vn 0.050000 0.000000 0.086603
vn 0.000000 0.000000 0.100000
vn 0.000000 0.000000 0.100000
vn 0.050000 0.000000 0.086603
vn 0.086603 0.000000 0.050000
vn 0.100000 0.000000 0.000000
vn 0.100000 0.000000 0.000000
vn 0.086603 -0.050000 0.000000
vn 0.050000 -0.086603 0.000000
vn 0.000000 -0.100000 0.000000
vn 0.000000 -0.100000 0.000000
vn 0.050000 -0.086603 0.000000
vn 0.086603 -0.050000 0.000000
vn 0.100000 0.000000 0.000000
vn 0.000000 0.000000 -0.100000
vn -0.050000 0.000000 -0.086603
vn -0.086603 0.000000 -0.050000
vn -0.100000 0.000000 0.000000
vn -0.100000 0.000000 0.000000
vn -0.086603 0.000000 -0.050000
vn -0.050000 0.000000 -0.086603
vn 0.000000 0.000000 -0.100000
vn -0.100000 0.000000 0.000000
vn -0.086603 0.050000 0.000000
vn -0.050000 0.086603 0.000000
vn 0.000000 0.100000 0.000000
vn 0.000000 0.100000 0.000000
vn -0.050000 0.086603 0.000000
vn -0.086603 0.050000 0.000000
vn -0.100000 0.000000 0.000000
vn 0.000000 -0.100000 0.000000
vn 0.000000 -0.086603 0.050000
vn 0.000000 -0.050000 0.086603
vn 0.000000 0.000000 0.100000
vn 0.000000 0.000000 0.100000
vn 0.000000 -0.050000 0.086603
vn 0.000000 -0.086603 0.050000
vn 0.000000 -0.100000 0.000000
vn -0.100000 0.000000 0.000000
vn -0.086603 0.000000 0.050000
vn -0.050000 0.000000 0.086603
vn 0.000000 0.000000 0.100000
vn 0.000000 0.000000 0.100000
vn -0.050000 0.000000 0.086603
vn -0.086603 0.000000 0.050000
vn -0.100000 0.000000 0.000000
vn 0.000000 -0.100000 0.000000
vn -0.050000 -0.086603 0.000000
vn -0.086603 -0.050000 0.000000
vn -0.100000 0.000000 0.000000
vn -0.100000 0.000000 0.000000
vn -0.086603 -0.050000 0.000000
vn -0.050000 -0.086603 0.000000
vn 0.000000 -0.100000 0.000000
vn 0.000000 -0.100000 0.000000
vn 0.000000 -0.100000 0.000000
vn 0.000000 -0.100000 0.000000
vn 0.000000 -0.100000 0.000000
vn 0.000000 0.000000 -0.100000
vn 0.000000 0.000000 -0.100000
vn 0.000000 0.000000 -0.100000
vn 0.000000 0.000000 -0.100000
vn 0.100000 0.000000 0.000000
vn 0.100000 0.000000 0.000000
vn 0.100000 0.000000 0.000000
vn 0.100000 0.000000 0.000000
vn 0.000000 0.100000 0.000000
vn 0.000000 0.100000 0.000000
vn 0.000000 0.100000 0.000000
vn 0.000000 0.100000 0.000000
vn 0.000000 0.000000 0.100000
vn 0.000000 0.000000 0.100000
vn 0.000000 0.000000 0.100000
vn 0.000000 0.000000 0.100000
vn -0.100000 0.000000 0.000000
vn -0.100000 0.000000 0.000000
vn -0.100000 0.000000 0.000000
vn -0.100000 0.000000 0.000000
usemtl 191,191,191
f 42/9/9 44/1/1 30/10/10
f 30/10/10 44/1/1 24/2/2
f 30/10/10 24/2/2 12/3/3
f 30/10/10 12/3/3 6/12/12
f 6/12/12 12/3/3 2/4/4
f 6/12/12 2/4/4 10/5/5
f 6/12/12 10/5/5 17/13/13
f 17/13/13 10/5/5 22/6/6
f 17/13/13 22/6/6 38/7/7
f 17/13/13 38/7/7 33/11/11
f 33/11/11 38/7/7 40/8/8
f 33/11/11 40/8/8 42/9/9
f 33/11/11 42/9/9 30/10/10
f 17/13/13 33/11/11 30/10/10
f 6/12/12 17/13/13 30/10/10
f 9/22/22 1/14/14 5/24/24
f 5/24/24 1/14/14 11/15/15
f 5/24/24 11/15/15 18/23/23
f 18/23/23 11/15/15 23/16/16
f 18/23/23 23/16/16 43/17/17
f 18/23/23 43/17/17 34/25/25
f 34/25/25 43/17/17 41/18/18
f 34/25/25 41/18/18 39/19/19
f 34/25/25 39/19/19 29/26/26
f 29/26/26 39/19/19 37/20/20
f 29/26/26 37/20/20 21/21/21
f 21/21/21 9/22/22 29/26/26
f 29/26/26 9/22/22 5/24/24
f 29/26/26 5/24/24 18/23/23
f 34/25/25 29/26/26 18/23/23
f 26/35/35 46/27/27 32/38/38
f 32/38/38 46/27/27 48/28/28
f 32/38/38 48/28/28 36/37/37
f 36/37/37 48/28/28 50/29/29
f 36/37/37 50/29/29 52/30/30
f 52/30/30 28/31/31 36/37/37
f 36/37/37 28/31/31 20/39/39
f 36/37/37 20/39/39 8/36/36
f 8/36/36 20/39/39 16/32/32
f 8/36/36 16/32/32 4/33/33
f 28/31/31 16/32/32 20/39/39
f 4/33/33 14/34/34 8/36/36
f 8/36/36 14/34/34 32/38/38
f 8/36/36 32/38/38 36/37/37
f 14/34/34 26/35/35 32/38/38
f 80/48/48 60/40/40 74/50/50
f 74/50/50 60/40/40 58/41/41
f 74/50/50 58/41/41 70/49/49
f 70/49/49 58/41/41 56/42/42
f 70/49/49 56/42/42 54/43/43
f 70/49/49 54/43/43 86/51/51
f 86/51/51 54/43/43 78/44/44
f 86/51/51 78/44/44 90/45/45
f 86/51/51 90/45/45 98/52/52
f 98/52/52 90/45/45 102/46/46
f 98/52/52 102/46/46 92/47/47
f 92/47/47 80/48/48 98/52/52
f 98/52/52 80/48/48 74/50/50
f 98/52/52 74/50/50 70/49/49
f 86/51/51 98/52/52 70/49/49
f 13/61/61 3/53/53 7/64/64
f 7/64/64 3/53/53 15/54/54
f 7/64/64 15/54/54 19/63/63
f 19/63/63 15/54/54 27/55/55
f 19/63/63 27/55/55 51/56/56
f 51/56/56 49/57/57 19/63/63
f 19/63/63 49/57/57 35/65/65
f 19/63/63 35/65/65 31/62/62
f 31/62/62 35/65/65 47/58/58
f 31/62/62 47/58/58 45/59/59
f 49/57/57 47/58/58 35/65/65
f 45/59/59 25/60/60 31/62/62
f 31/62/62 25/60/60 7/64/64
f 31/62/62 7/64/64 19/63/63
f 25/60/60 13/61/61 7/64/64
f 91/74/74 101/66/66 97/76/76
f 97/76/76 101/66/66 89/67/67
f 97/76/76 89/67/67 85/75/75
f 85/75/75 89/67/67 77/68/68
f 85/75/75 77/68/68 53/69/69
f 85/75/75 53/69/69 69/77/77
f 69/77/77 53/69/69 55/70/70
f 69/77/77 55/70/70 57/71/71
f 69/77/77 57/71/71 73/78/78
f 73/78/78 57/71/71 59/72/72
f 73/78/78 59/72/72 79/73/73
f 79/73/73 91/74/74 73/78/78
f 73/78/78 91/74/74 97/76/76
f 73/78/78 97/76/76 85/75/75
f 69/77/77 73/78/78 85/75/75
f 59/79/79 57/80/80 43/86/86
f 43/86/86 57/80/80 41/85/85
f 41/85/85 57/80/80 39/84/84
f 39/84/84 57/80/80 55/81/81
f 39/84/84 55/81/81 53/82/82
f 53/82/82 37/83/83 39/84/84
f 64/95/95 62/87/87 75/96/96
f 75/96/96 62/87/87 82/88/88
f 75/96/96 82/88/88 99/98/98
f 99/98/98 82/88/88 94/89/89
f 99/98/98 94/89/89 104/90/90
f 104/90/90 96/91/91 99/98/98
f 99/98/98 96/91/91 88/99/99
f 99/98/98 88/99/99 75/96/96
f 75/96/96 88/99/99 72/97/97
f 75/96/96 72/97/97 64/95/95
f 64/95/95 72/97/97 66/94/94
f 66/94/94 72/97/97 88/99/99
f 66/94/94 88/99/99 68/93/93
f 68/93/93 88/99/99 84/92/92
f 84/92/92 88/99/99 96/91/91
f 65/108/108 67/100/100 76/109/109
f 76/109/109 67/100/100 83/101/101
f 76/109/109 83/101/101 95/102/102
f 76/109/109 95/102/102 100/111/111
f 100/111/111 95/102/102 103/103/103
f 100/111/111 103/103/103 93/104/104
f 100/111/111 93/104/104 87/112/112
f 87/112/112 93/104/104 81/105/105
f 87/112/112 81/105/105 61/106/106
f 87/112/112 61/106/106 71/110/110
f 71/110/110 61/106/106 63/107/107
f 71/110/110 63/107/107 65/108/108
f 71/110/110 65/108/108 76/109/109
f 87/112/112 71/110/110 76/109/109
f 100/111/111 87/112/112 76/109/109
f 61/113/113 81/114/114 59/120/120
f 59/120/120 81/114/114 79/119/119
f 79/119/119 81/114/114 91/118/118
f 91/118/118 81/114/114 93/115/115
f 91/118/118 93/115/115 103/116/116
f 103/116/116 101/117/117 91/118/118
f 45/121/121 47/122/122 61/128/128
f 61/128/128 47/122/122 63/127/127
f 63/127/127 47/122/122 65/126/126
f 65/126/126 47/122/122 49/123/123
f 65/126/126 49/123/123 51/124/124
f 51/124/124 67/125/125 65/126/126
f 68/129/129 84/130/130 67/136/136
f 67/136/136 84/130/130 83/135/135
f 83/135/135 84/130/130 95/134/134
f 95/134/134 84/130/130 96/131/131
f 95/134/134 96/131/131 104/132/132
f 104/132/132 103/133/133 95/134/134
f 52/137/137 50/138/138 68/144/144
f 68/144/144 50/138/138 66/143/143
f 66/143/143 50/138/138 64/142/142
f 64/142/142 50/138/138 48/139/139
f 64/142/142 48/139/139 46/140/140
f 46/140/140 62/141/141 64/142/142
f 104/145/145 94/146/146 102/152/152
f 102/152/152 94/146/146 92/151/151
f 92/151/151 94/146/146 80/150/150
f 80/150/150 94/146/146 82/147/147
f 80/150/150 82/147/147 62/148/148
f 62/148/148 60/149/149 80/150/150
f 102/153/153 90/154/154 101/160/160
f 101/160/160 90/154/154 89/159/159
f 89/159/159 90/154/154 77/158/158
f 77/158/158 90/154/154 78/155/155
f 77/158/158 78/155/155 54/156/156
f 54/156/156 53/157/157 77/158/158
f 43/161/161 23/162/162 45/168/168
f 45/168/168 23/162/162 25/167/167
f 25/167/167 23/162/162 13/166/166
f 13/166/166 23/162/162 11/163/163
f 13/166/166 11/163/163 1/164/164
f 1/164/164 3/165/165 13/166/166
f 4/169/169 16/170/170 3/176/176
f 3/176/176 16/170/170 15/175/175
f 15/175/175 16/170/170 27/174/174
f 27/174/174 16/170/170 28/171/171
f 27/174/174 28/171/171 52/172/172
f 52/172/172 51/173/173 27/174/174
f 54/177/177 56/178/178 38/184/184
f 38/184/184 56/178/178 40/183/183
f 40/183/183 56/178/178 42/182/182
f 42/182/182 56/178/178 58/179/179
f 42/182/182 58/179/179 60/180/180
f 60/180/180 44/181/181 42/182/182
f 2/185/185 12/186/186 4/192/192
f 4/192/192 12/186/186 14/191/191
f 14/191/191 12/186/186 26/190/190
f 26/190/190 12/186/186 24/187/187
f 26/190/190 24/187/187 44/188/188
f 44/188/188 46/189/189 26/190/190
f 38/193/193 22/194/194 37/200/200
f 37/200/200 22/194/194 21/199/199
f 21/199/199 22/194/194 9/198/198
f 9/198/198 22/194/194 10/195/195
f 9/198/198 10/195/195 2/196/196
f 2/196/196 1/197/197 9/198/198
f 37/201/201 53/202/202 38/204/204
f 38/204/204 53/202/202 54/203/203
f 59/205/205 43/206/206 61/208/208
f 61/208/208 43/206/206 45/207/207
f 101/209/209 103/210/210 102/212/212
f 102/212/212 103/210/210 104/211/211
f 67/213/213 51/214/214 68/216/216
f 68/216/216 51/214/214 52/215/215
f 62/217/217 46/218/218 60/220/220
f 60/220/220 46/218/218 44/219/219
f 3/221/221 1/222/222 4/224/224
f 4/224/224 1/222/222 2/223/223

# 104 vertices
# 224 texture params
# 224 normals
# 204 facets

# 1 groups
